<svg width="31" height="30" viewBox="0 0 31 30" fill="none" xmlns="http://www.w3.org/2000/svg">
<path d="M24.8805 6.76815C24.3117 6.20759 23.6363 5.76292 22.8929 5.45954C22.1496 5.15615 21.3529 5 20.5482 5C19.7436 5 18.9469 5.15615 18.2035 5.45954C17.4602 5.76292 16.7848 6.20759 16.216 6.76815L15.0355 7.93095L13.855 6.76815C12.706 5.6364 11.1476 5.00059 9.52272 5.00059C7.89781 5.00059 6.33946 5.6364 5.19047 6.76815C4.04149 7.89989 3.396 9.43487 3.396 11.0354C3.396 12.6359 4.04149 14.1709 5.19047 15.3027L6.37098 16.4655L15.0355 25L23.7 16.4655L24.8805 15.3027C25.4496 14.7424 25.901 14.0771 26.209 13.3449C26.517 12.6128 26.6756 11.828 26.6756 11.0354C26.6756 10.2429 26.517 9.45806 26.209 8.72587C25.901 7.99368 25.4496 7.32844 24.8805 6.76815V6.76815Z" stroke="black" stroke-width="2" stroke-linecap="round" stroke-linejoin="round"/>
</svg>
