<svg width="25" height="25" viewBox="0 0 25 25" fill="none" xmlns="http://www.w3.org/2000/svg">
<path d="M17.9389 2H7.06109C5.43801 2.02215 3.88963 2.68578 2.75405 3.84598C1.61847 5.00618 0.987953 6.56869 1.00017 8.19231V18.8077C0.987953 20.4313 1.61847 21.9938 2.75405 23.154C3.88963 24.3142 5.43801 24.9778 7.06109 25H17.9389C19.562 24.9778 21.1104 24.3142 22.2459 23.154C23.3815 21.9938 24.012 20.4313 23.9998 18.8077V8.19231C24.012 6.56869 23.3815 5.00618 22.2459 3.84598C21.1104 2.68578 19.562 2.02215 17.9389 2V2ZM21.9378 18.6603C21.9472 19.7847 21.5113 20.8672 20.7253 21.6711C19.9392 22.4751 18.867 22.9351 17.7429 22.9506H7.25717C6.13307 22.9351 5.06084 22.4751 4.27479 21.6711C3.48875 20.8672 3.05281 19.7847 3.06227 18.6603V8.34712C3.05281 7.22265 3.48875 6.14016 4.27479 5.33622C5.06084 4.53229 6.13307 4.07228 7.25717 4.05673H17.7429C18.867 4.07228 19.9392 4.53229 20.7253 5.33622C21.5113 6.14016 21.9472 7.22265 21.9378 8.34712V18.6603Z" fill="black"/>
<path d="M12.4939 7.59651C11.3204 7.57191 10.1662 7.89749 9.17854 8.53173C8.19085 9.16597 7.41444 10.0801 6.9483 11.1576C6.48217 12.235 6.34744 13.427 6.56133 14.5813C6.77522 15.7357 7.32802 16.8001 8.14922 17.6389C8.97042 18.4777 10.0228 19.0529 11.1721 19.2909C12.3214 19.529 13.5156 19.4192 14.6023 18.9756C15.689 18.532 16.6189 17.7746 17.2735 16.8002C17.9281 15.8257 18.2777 14.6783 18.2776 13.5043C18.2934 11.9538 17.693 10.4606 16.6084 9.35275C15.5239 8.24494 14.0439 7.61324 12.4939 7.59651V7.59651ZM12.4939 17.314C11.7371 17.3292 10.993 17.1187 10.3564 16.7092C9.71977 16.2997 9.21953 15.7099 8.9194 15.0149C8.61927 14.3198 8.53287 13.5512 8.67124 12.8068C8.8096 12.0625 9.16644 11.3763 9.69628 10.8356C10.2261 10.295 10.9049 9.92442 11.6461 9.77121C12.3874 9.61799 13.1574 9.68907 13.8581 9.97537C14.5587 10.2617 15.1583 10.7502 15.5803 11.3787C16.0023 12.0072 16.2275 12.7472 16.2274 13.5043C16.233 13.9998 16.1409 14.4916 15.9561 14.9515C15.7714 15.4114 15.4979 15.8302 15.151 16.1841C14.8042 16.5381 14.391 16.82 13.935 17.0139C13.479 17.2078 12.9893 17.3098 12.4939 17.314V17.314Z" fill="black"/>
<path d="M18.5891 8.61095C19.3104 8.61095 19.8951 8.01423 19.8951 7.27813C19.8951 6.54204 19.3104 5.94531 18.5891 5.94531C17.8679 5.94531 17.2832 6.54204 17.2832 7.27813C17.2832 8.01423 17.8679 8.61095 18.5891 8.61095Z" fill="black"/>
</svg>
