<svg width="25" height="25" viewBox="0 0 25 25" fill="none" xmlns="http://www.w3.org/2000/svg">
<path d="M5.50804 8.38477H0.637207V24.0001H5.50804V8.38477Z" fill="black"/>
<path d="M18.8188 8.23145C16.0246 8.23145 14.2773 9.76097 13.9493 10.8313V8.37773H8.47412C8.54573 9.6813 8.47412 23.9931 8.47412 23.9931H13.9493V15.543C13.9136 15.1139 13.9539 14.6818 14.0682 14.267C14.2551 13.7094 14.6097 13.225 15.0826 12.8816C15.5554 12.5382 16.1226 12.3531 16.7048 12.3522C18.6038 12.3522 19.4717 13.8006 19.4717 15.9095V23.9931H24.9999V15.3113C25.0042 10.4779 22.2818 8.23145 18.8188 8.23145Z" fill="black"/>
<path d="M2.97747 1.01225C2.60241 0.97634 2.22412 1.01958 1.86645 1.13923C1.50877 1.25889 1.17955 1.45235 0.899657 1.70737C0.619759 1.9624 0.395247 2.27343 0.240386 2.62075C0.0855255 2.96808 0.00367629 3.34414 0 3.72513C0.00098748 4.10023 0.0785419 4.47107 0.227974 4.81438C0.377405 5.15769 0.595497 5.46605 0.868363 5.72011C1.14123 5.97417 1.46302 6.16846 1.81365 6.29075C2.16428 6.41304 2.53608 6.4607 2.90579 6.43076H2.93883C3.31176 6.46949 3.68858 6.429 4.04513 6.31188C4.40168 6.19475 4.73006 6.00357 5.0093 5.7506C5.28854 5.49763 5.51245 5.18845 5.66665 4.84287C5.82084 4.49729 5.90195 4.12293 5.90476 3.74381C5.90757 3.36468 5.83197 2.98914 5.68291 2.64126C5.53384 2.29339 5.31448 1.98085 5.03902 1.72368C4.76356 1.46651 4.43802 1.27039 4.08324 1.14788C3.72847 1.02536 3.35232 0.979168 2.97887 1.01225H2.97747Z" fill="black"/>
</svg>
