<svg width="65" height="15" viewBox="0 0 65 15" fill="none" xmlns="http://www.w3.org/2000/svg">
<path d="M60.1799 8.3841L56.0609 4.95162C55.7017 4.65223 55.9134 4.0675 56.381 4.0675H60.5C60.7761 4.0675 61 4.29136 61 4.56751V7.99998C61 8.4239 60.5056 8.65548 60.1799 8.3841Z" fill="#064C43"/>
<path d="M58.9391 10.1159L54.8201 6.68339C54.4944 6.41201 54 6.64359 54 7.0675V10.5C54 10.7761 54.2239 11 54.5 11L58.619 11C59.0866 11 59.2983 10.4153 58.9391 10.1159Z" fill="#064C43"/>
<path d="M28 8H37V7H28V8Z" fill="#664506"/>
<path d="M10.6641 11.351L7.51768 8.20458L4.37123 11.351L3.66412 10.6439L6.81057 7.49747L3.66412 4.35103L4.37123 3.64392L7.51768 6.79037L10.6641 3.64392L11.3712 4.35103L8.22478 7.49747L11.3712 10.6439L10.6641 11.351Z" fill="#622D24"/>
</svg>
