<svg width="62" height="14" viewBox="0 0 62 14" fill="none" xmlns="http://www.w3.org/2000/svg">
<g style="mix-blend-mode:multiply" opacity="0.6">
<path fill-rule="evenodd" clip-rule="evenodd" d="M10.0619 10.75L7 7.68811L3.93811 10.75L3.25 10.0619L6.31189 7L3.25 3.93811L3.93811 3.25L7 6.31189L10.0619 3.25L10.75 3.93811L7.68811 7L10.75 10.0619L10.0619 10.75ZM27 7.5H35V6.5H27V7.5ZM57.6799 8.06659L53.5609 4.63411C53.2017 4.33473 53.4134 3.75 53.881 3.75H58C58.2761 3.75 58.5 3.97386 58.5 4.25V7.68248C58.5 8.1064 58.0056 8.33798 57.6799 8.06659ZM56.4391 9.36589L52.3201 5.93341C51.9944 5.66202 51.5 5.8936 51.5 6.31752V9.75C51.5 10.0261 51.7239 10.25 52 10.25L56.119 10.25C56.5866 10.25 56.7983 9.66527 56.4391 9.36589Z" fill="black"/>
</g>
</svg>
