<svg width="25" height="25" viewBox="0 0 25 25" fill="none" xmlns="http://www.w3.org/2000/svg">
<path d="M24.3135 3.38522C23.3085 4.00035 22.2055 4.43545 21.0535 4.67131C20.5793 4.14489 20.0012 3.72428 19.3564 3.43646C18.7115 3.14865 18.0142 2.99998 17.3091 3C15.9323 3.01936 14.6194 3.58866 13.6582 4.58307C12.6969 5.57749 12.1658 6.91586 12.1813 8.30471C12.1793 8.71203 12.2227 9.11829 12.3106 9.51585C10.2579 9.4031 8.25263 8.85011 6.42857 7.89375C4.60451 6.9374 3.00357 5.59967 1.73254 3.96981C1.07544 5.13836 0.874081 6.51216 1.16784 7.82254C1.4616 9.13292 2.22935 10.2856 3.32095 11.0552C2.50454 11.0259 1.70704 10.7992 0.995539 10.3942V10.4557C0.983498 11.6685 1.38674 12.8483 2.13716 13.796C2.88758 14.7436 3.9392 15.4009 5.11441 15.657C4.6749 15.7817 4.22034 15.8443 3.76375 15.8428C3.43852 15.8423 3.11409 15.8102 2.79495 15.7469C3.10977 16.7907 3.74235 17.7081 4.60301 18.3688C5.46366 19.0296 6.50869 19.4003 7.5899 19.4283C6.53528 20.2887 5.31987 20.9264 4.01597 21.3034C2.71208 21.6804 1.34634 21.789 0 21.6227C2.33408 23.173 5.06725 23.9994 7.86181 24C17.3001 24 22.4562 15.9163 22.4562 8.89979C22.4562 8.66595 22.4562 8.43812 22.4428 8.21178C23.45 7.45744 24.316 6.52806 25 5.46724C24.0659 5.89528 23.0721 6.17586 22.0535 6.29914C23.1344 5.63892 23.9383 4.60241 24.3135 3.38522V3.38522Z" fill="black"/>
</svg>
